<?xml version="1.0" standalone="no"?>
<!DOCTYPE svg PUBLIC "-//W3C//DTD SVG 20010904//EN"
 "http://www.w3.org/TR/2001/REC-SVG-20010904/DTD/svg10.dtd">
<svg version="1.0" xmlns="http://www.w3.org/2000/svg"
 width="147.000000pt" height="147.000000pt" viewBox="0 0 147.000000 147.000000"
 preserveAspectRatio="xMidYMid meet">
<metadata>
Created by potrace 1.11, written by Peter Selinger 2001-2013
</metadata>
<g transform="translate(0.000000,147.000000) scale(0.100000,-0.100000)"
fill="#000000" stroke="none">
<path d="M0 780 l0 -690 24 0 c28 0 53 -24 36 -35 -6 -4 -22 -4 -36 -1 -21 6
-24 3 -24 -24 l0 -30 319 0 318 0 7 37 c3 21 6 98 6 171 0 72 4 132 8 132 5 0
19 -11 32 -25 l23 -24 -21 -58 c-24 -64 -26 -80 -24 -170 2 -43 6 -63 15 -63
9 0 12 28 13 103 1 73 6 113 18 142 l17 40 25 -30 c19 -24 24 -42 24 -90 0
-33 3 -84 6 -113 l7 -52 338 0 339 0 -1 618 0 617 -45 -170 c-55 -212 -123
-425 -135 -425 -11 0 -14 -9 22 95 38 113 77 250 123 432 27 104 36 163 36
222 l0 81 -265 0 -266 0 -5 -30 c-4 -16 -11 -30 -15 -30 -5 0 -6 12 -3 26 7
26 7 26 -23 10 -17 -8 -74 -19 -128 -25 -88 -9 -102 -8 -151 10 -29 11 -56 25
-59 30 -4 5 -35 9 -70 9 -62 0 -65 -1 -71 -27 -52 -223 -142 -535 -199 -688
-5 -11 21 23 56 74 75 111 181 210 205 190 17 -14 18 -47 3 -86 -8 -20 -7 -49
1 -106 12 -73 14 -77 34 -70 60 21 116 -9 116 -61 0 -53 -12 -60 -54 -35 -31
18 -41 20 -62 10 -23 -10 -24 -9 -14 8 15 29 -7 31 -55 5 -22 -13 -96 -39
-165 -59 -69 -21 -131 -42 -138 -47 -23 -19 -20 -4 19 90 43 105 87 231 130
371 33 104 109 398 109 419 0 9 -47 12 -200 12 l-200 0 0 -690z m781 229 c27
-28 29 -35 23 -75 -9 -60 15 -70 58 -25 l32 32 16 -21 c24 -31 56 -23 52 13
-1 15 2 27 8 27 5 0 10 -4 10 -10 0 -21 20 -9 21 13 1 17 2 18 6 4 13 -49 -42
-126 -93 -130 -23 -2 -29 -9 -37 -37 -4 -19 -14 -40 -20 -47 -11 -11 -53 -18
-87 -15 -17 2 -44 56 -44 91 -1 19 -7 24 -31 27 -34 4 -75 23 -75 36 0 12 26
38 38 38 5 0 12 9 15 20 4 14 14 20 34 20 39 0 40 29 1 42 -24 8 -27 13 -17
25 17 20 54 9 90 -28z m-127 -18 c3 -5 -1 -11 -9 -15 -9 -3 -15 0 -15 9 0 16
16 20 24 6z m-86 -88 c12 -19 21 -38 18 -40 -3 -3 -23 -2 -45 2 -44 7 -49 17
-30 59 14 30 27 25 57 -21z m12 -93 c11 -21 4 -25 -19 -11 -7 5 -10 14 -7 20
10 15 14 14 26 -9z m358 -46 c-2 -34 2 -49 15 -59 9 -7 17 -21 17 -31 0 -25
-66 -138 -105 -180 -17 -18 -37 -44 -45 -59 -13 -25 -12 -28 20 -53 102 -81
161 -126 213 -163 32 -22 61 -47 64 -55 6 -15 -61 -122 -82 -130 -13 -5 -128
104 -175 164 -44 58 -100 143 -100 153 0 6 -9 23 -21 37 -12 16 -18 34 -15 48
6 23 -14 34 -66 34 -31 0 -58 9 -58 20 0 4 14 13 30 20 39 16 39 34 0 25 -26
-6 -34 -2 -51 19 l-21 26 -30 -25 c-20 -17 -34 -23 -40 -17 -16 16 1 50 38 72
30 19 43 21 109 15 66 -7 78 -11 94 -34 10 -14 21 -38 24 -52 7 -29 42 -44 72
-32 14 5 16 14 12 48 -5 36 -2 47 18 71 14 16 25 37 25 46 0 9 5 20 10 23 6 3
10 15 10 25 0 18 30 90 37 90 1 0 2 -21 1 -46z m140 -60 c-9 -8 -78 15 -78 27
0 16 5 24 12 22 4 -2 13 7 19 19 12 22 13 21 32 -20 12 -23 18 -44 15 -48z
m-624 -160 c13 -5 14 -9 5 -20 -13 -16 -28 -17 -48 -5 -29 18 7 39 43 25z
m114 -166 c13 -13 17 -62 5 -56 -50 24 -63 33 -63 43 0 26 37 34 58 13z m772
-12 c0 -3 -4 -8 -10 -11 -5 -3 -10 -1 -10 4 0 6 5 11 10 11 6 0 10 -2 10 -4z"/>
<path d="M728 75 c6 -32 12 -32 12 0 0 14 -4 25 -9 25 -4 0 -6 -11 -3 -25z"/>
</g>
</svg>
